<?xml version="1.0" encoding="utf-8"?>
<!-- Generator: Adobe Illustrator 19.0.0, SVG Export Plug-In . SVG Version: 6.00 Build 0)  -->
<svg version="1.1" id="Layer_1" xmlns="http://www.w3.org/2000/svg" xmlns:xlink="http://www.w3.org/1999/xlink" x="0px" y="0px"
	 viewBox="0 0 960 560" style="enable-background:new 0 0 960 560;" xml:space="preserve">
<style type="text/css">
	.st0{fill:#FCEE21;}
</style>
<g>
	<path class="st0" d="M470.4,355.5c-0.3,0-0.8,0-1.1-0.3c-1.7-0.6-2.8-2-3.1-3.6l-6.4-72l-9.2,5c-1.4,0.8-3.1,0.6-4.5-0.3
		l-64.4-45.2c-1.4-1.1-2-2.8-1.7-4.5c0.3-1.7,1.7-3.1,3.6-3.1l192.7-27.6c1.7-0.3,3.3,0.6,4.2,2c0.8,1.4,0.8,3.3-0.3,4.7
		L473.7,353.9C473.2,355,471.8,355.5,470.4,355.5z M467.6,273.8l5.9,66.4l88.1-118.5L467.6,273.8z M395.3,238.4l52.2,36.8
		l107.7-59.7L395.3,238.4z"/>
</g>
</svg>
